<svg width="225" height="100" viewBox="0 0 225 100" fill="none" xmlns="http://www.w3.org/2000/svg">
<path d="M16.52 4.91999C20.808 4.91999 24.504 6.27999 27.608 8.99999L23.624 13.176C22.44 12.28 21.336 11.64 20.312 11.256C19.32 10.84 18.168 10.632 16.856 10.632C14.392 10.632 12.424 11.608 10.952 13.56C9.47999 15.48 8.74399 18.408 8.74399 22.344C8.74399 26.6 9.30398 29.624 10.424 31.416C11.544 33.176 13.288 34.056 15.656 34.056C17.32 34.056 18.824 33.688 20.168 32.952V25.416H15.848L15.08 19.848H27.8V36.312C26.072 37.432 24.168 38.296 22.088 38.904C20.008 39.512 17.928 39.816 15.848 39.816C10.792 39.816 6.98398 38.344 4.42398 35.4C1.86398 32.424 0.583984 28.072 0.583984 22.344C0.583984 18.696 1.27198 15.56 2.64798 12.936C4.05598 10.312 5.95998 8.32799 8.35998 6.98399C10.792 5.60799 13.512 4.91999 16.52 4.91999Z" fill="#282424"/>
<path d="M54.4175 39H47.8415L47.5055 35.784C45.6495 38.472 43.0735 39.816 39.7775 39.816C37.4415 39.816 35.6655 39.112 34.4495 37.704C33.2655 36.296 32.6735 34.328 32.6735 31.8V13.512H40.2575V30.84C40.2575 32.088 40.4495 32.968 40.8335 33.48C41.2495 33.96 41.8735 34.2 42.7055 34.2C44.3055 34.2 45.6815 33.208 46.8335 31.224V13.512H54.4175V39Z" fill="#282424"/>
<path d="M67.9662 13.512V39H60.3822V13.512H67.9662ZM64.1262 0.071991C65.4382 0.071991 66.5102 0.487991 67.3422 1.31999C68.2062 2.11999 68.6382 3.14399 68.6382 4.39199C68.6382 5.63999 68.2062 6.67999 67.3422 7.51199C66.5102 8.31199 65.4382 8.71199 64.1262 8.71199C62.8142 8.71199 61.7422 8.31199 60.9102 7.51199C60.0782 6.67999 59.6622 5.63999 59.6622 4.39199C59.6622 3.14399 60.0782 2.11999 60.9102 1.31999C61.7422 0.487991 62.8142 0.071991 64.1262 0.071991Z" fill="#282424"/>
<path d="M80.6971 39.816C78.4891 39.816 76.7611 39.192 75.5131 37.944C74.2971 36.664 73.6891 34.856 73.6891 32.52V3.38399L81.2731 2.56799V32.232C81.2731 33.288 81.7051 33.816 82.5691 33.816C83.0171 33.816 83.4331 33.736 83.8171 33.576L85.3051 38.952C83.9291 39.528 82.3931 39.816 80.6971 39.816Z" fill="#282424"/>
<path d="M103.107 12.696C105.315 12.696 107.043 13.368 108.291 14.712C109.539 16.056 110.163 17.944 110.163 20.376V39H102.579V21.672C102.579 20.392 102.371 19.512 101.955 19.032C101.539 18.52 100.947 18.264 100.179 18.264C98.6431 18.264 97.1711 19.352 95.7631 21.528V39H88.1791V3.38399L95.7631 2.61599V16.248C96.8191 15.064 97.9391 14.184 99.1231 13.608C100.307 13 101.635 12.696 103.107 12.696Z" fill="#282424"/>
<path d="M138.106 25.752C138.106 26.808 138.058 27.72 137.962 28.488H122.17C122.426 30.632 123.034 32.136 123.994 33C124.954 33.864 126.282 34.296 127.978 34.296C129.002 34.296 129.994 34.12 130.954 33.768C131.914 33.384 132.954 32.808 134.074 32.04L137.194 36.264C134.218 38.632 130.906 39.816 127.258 39.816C123.13 39.816 119.962 38.6 117.754 36.168C115.546 33.736 114.442 30.472 114.442 26.376C114.442 23.784 114.906 21.464 115.834 19.416C116.762 17.336 118.122 15.704 119.914 14.52C121.706 13.304 123.85 12.696 126.346 12.696C130.026 12.696 132.906 13.848 134.986 16.152C137.066 18.456 138.106 21.656 138.106 25.752ZM130.666 23.592C130.602 19.688 129.226 17.736 126.538 17.736C125.226 17.736 124.202 18.216 123.466 19.176C122.762 20.136 122.33 21.72 122.17 23.928H130.666V23.592Z" fill="#282424"/>
<path d="M156.191 12.792C157.119 12.792 157.967 12.904 158.735 13.128L157.535 20.472C156.575 20.248 155.807 20.136 155.231 20.136C153.727 20.136 152.575 20.664 151.775 21.72C151.007 22.744 150.399 24.296 149.951 26.376V39H142.367V13.512H148.991L149.615 18.456C150.191 16.696 151.055 15.32 152.207 14.328C153.391 13.304 154.719 12.792 156.191 12.792Z" fill="#282424"/>
<path d="M189.808 12.696C191.824 12.696 193.44 13.384 194.656 14.76C195.872 16.104 196.48 17.976 196.48 20.376V39H188.896V21.672C188.896 19.4 188.176 18.264 186.736 18.264C185.936 18.264 185.232 18.536 184.624 19.08C184.016 19.624 183.424 20.456 182.848 21.576V39H175.264V21.672C175.264 19.4 174.544 18.264 173.104 18.264C172.336 18.264 171.632 18.552 170.992 19.128C170.384 19.672 169.792 20.488 169.216 21.576V39H161.632V13.512H168.256L168.784 16.488C169.776 15.208 170.864 14.264 172.048 13.656C173.264 13.016 174.64 12.696 176.176 12.696C177.616 12.696 178.848 13.048 179.872 13.752C180.928 14.456 181.696 15.448 182.176 16.728C183.2 15.352 184.32 14.344 185.536 13.704C186.784 13.032 188.208 12.696 189.808 12.696Z" fill="#282424"/>
<path d="M224.403 25.752C224.403 26.808 224.355 27.72 224.259 28.488H208.467C208.723 30.632 209.331 32.136 210.291 33C211.251 33.864 212.579 34.296 214.275 34.296C215.299 34.296 216.291 34.12 217.251 33.768C218.211 33.384 219.251 32.808 220.371 32.04L223.491 36.264C220.515 38.632 217.203 39.816 213.555 39.816C209.427 39.816 206.259 38.6 204.051 36.168C201.843 33.736 200.739 30.472 200.739 26.376C200.739 23.784 201.203 21.464 202.131 19.416C203.059 17.336 204.419 15.704 206.211 14.52C208.003 13.304 210.147 12.696 212.643 12.696C216.323 12.696 219.203 13.848 221.283 16.152C223.363 18.456 224.403 21.656 224.403 25.752ZM216.963 23.592C216.899 19.688 215.523 17.736 212.835 17.736C211.523 17.736 210.499 18.216 209.763 19.176C209.059 20.136 208.627 21.72 208.467 23.928H216.963V23.592Z" fill="#282424"/>
<path d="M13.064 86.28H9.99199V99H2.11998V65.736H13.016C17.56 65.736 20.968 66.568 23.24 68.232C25.544 69.896 26.696 72.44 26.696 75.864C26.696 78.008 26.184 79.8 25.16 81.24C24.136 82.648 22.52 83.848 20.312 84.84L28.76 99H19.88L13.064 86.28ZM9.99199 80.856H13.304C15.064 80.856 16.376 80.456 17.24 79.656C18.136 78.856 18.584 77.592 18.584 75.864C18.584 74.264 18.104 73.096 17.144 72.36C16.216 71.624 14.776 71.256 12.824 71.256H9.99199V80.856Z" fill="#282424"/>
<path d="M39.185 73.512V99H31.601V73.512H39.185ZM35.345 60.072C36.657 60.072 37.729 60.488 38.561 61.32C39.425 62.12 39.857 63.144 39.857 64.392C39.857 65.64 39.425 66.68 38.561 67.512C37.729 68.312 36.657 68.712 35.345 68.712C34.033 68.712 32.961 68.312 32.129 67.512C31.297 66.68 30.881 65.64 30.881 64.392C30.881 63.144 31.297 62.12 32.129 61.32C32.961 60.488 34.033 60.072 35.345 60.072Z" fill="#282424"/>
<path d="M59.5959 72.696C62.6359 72.696 64.9719 73.896 66.6039 76.296C68.2359 78.664 69.0519 81.992 69.0519 86.28C69.0519 88.904 68.6359 91.24 67.8039 93.288C67.0039 95.336 65.8359 96.936 64.2999 98.088C62.7959 99.24 61.0039 99.816 58.9239 99.816C57.5479 99.816 56.2839 99.528 55.1319 98.952C54.0119 98.376 53.0519 97.576 52.2519 96.552L51.8679 99H45.1479V63.384L52.7319 62.568V76.104C53.4999 75.048 54.4759 74.216 55.6599 73.608C56.8759 73 58.1879 72.696 59.5959 72.696ZM56.7159 94.296C59.6919 94.296 61.1799 91.624 61.1799 86.28C61.1799 83.24 60.8279 81.144 60.1239 79.992C59.4199 78.84 58.3959 78.264 57.0519 78.264C55.3559 78.264 53.9159 79.256 52.7319 81.24V91.848C53.2119 92.616 53.7879 93.224 54.4599 93.672C55.1639 94.088 55.9159 94.296 56.7159 94.296Z" fill="#282424"/>
<path d="M96.0125 85.752C96.0125 86.808 95.9645 87.72 95.8685 88.488H80.0765C80.3325 90.632 80.9405 92.136 81.9005 93C82.8605 93.864 84.1885 94.296 85.8845 94.296C86.9085 94.296 87.9005 94.12 88.8605 93.768C89.8205 93.384 90.8605 92.808 91.9805 92.04L95.1005 96.264C92.1245 98.632 88.8125 99.816 85.1645 99.816C81.0365 99.816 77.8685 98.6 75.6605 96.168C73.4525 93.736 72.3485 90.472 72.3485 86.376C72.3485 83.784 72.8125 81.464 73.7405 79.416C74.6685 77.336 76.0285 75.704 77.8205 74.52C79.6125 73.304 81.7565 72.696 84.2525 72.696C87.9325 72.696 90.8125 73.848 92.8925 76.152C94.9725 78.456 96.0125 81.656 96.0125 85.752ZM88.5725 83.592C88.5085 79.688 87.1325 77.736 84.4445 77.736C83.1325 77.736 82.1085 78.216 81.3725 79.176C80.6685 80.136 80.2365 81.72 80.0765 83.928H88.5725V83.592Z" fill="#282424"/>
<path d="M107.857 73.512V99H100.273V73.512H107.857ZM104.017 60.072C105.329 60.072 106.401 60.488 107.233 61.32C108.097 62.12 108.529 63.144 108.529 64.392C108.529 65.64 108.097 66.68 107.233 67.512C106.401 68.312 105.329 68.712 104.017 68.712C102.705 68.712 101.633 68.312 100.801 67.512C99.9689 66.68 99.5529 65.64 99.5529 64.392C99.5529 63.144 99.9689 62.12 100.801 61.32C101.633 60.488 102.705 60.072 104.017 60.072Z" fill="#282424"/>
<path d="M127.644 72.792C128.572 72.792 129.42 72.904 130.188 73.128L128.988 80.472C128.028 80.248 127.26 80.136 126.684 80.136C125.18 80.136 124.028 80.664 123.228 81.72C122.46 82.744 121.852 84.296 121.404 86.376V99H113.82V73.512H120.444L121.068 78.456C121.644 76.696 122.508 75.32 123.66 74.328C124.844 73.304 126.172 72.792 127.644 72.792Z" fill="#282424"/>
<path d="M142.672 72.696C146.576 72.696 149.632 73.896 151.84 76.296C154.048 78.664 155.152 81.992 155.152 86.28C155.152 89 154.64 91.384 153.616 93.432C152.624 95.448 151.184 97.016 149.296 98.136C147.44 99.256 145.232 99.816 142.672 99.816C138.8 99.816 135.744 98.632 133.504 96.264C131.296 93.864 130.192 90.52 130.192 86.232C130.192 83.512 130.688 81.144 131.68 79.128C132.704 77.08 134.144 75.496 136 74.376C137.888 73.256 140.112 72.696 142.672 72.696ZM142.672 78.264C141.136 78.264 139.984 78.92 139.216 80.232C138.448 81.512 138.064 83.512 138.064 86.232C138.064 89.016 138.432 91.048 139.168 92.328C139.936 93.608 141.104 94.248 142.672 94.248C144.208 94.248 145.36 93.608 146.128 92.328C146.896 91.016 147.28 89 147.28 86.28C147.28 83.496 146.896 81.464 146.128 80.184C145.392 78.904 144.24 78.264 142.672 78.264Z" fill="#282424"/>
</svg>
