<svg width="33" height="32" viewBox="0 0 33 32" fill="none" xmlns="http://www.w3.org/2000/svg">
<path d="M3.42363 32V29.8182H29.7766V32H3.42363ZM3.42363 2.18182V0H29.7766V2.18182H3.42363ZM16.6001 17.3091C17.9073 17.3091 19.0053 16.897 19.8942 16.0727C20.7831 15.2485 21.2275 14.2303 21.2275 13.0182C21.2275 11.8061 20.7831 10.7879 19.8942 9.9636C19.0053 9.1394 17.9073 8.7273 16.6001 8.7273C15.2929 8.7273 14.1949 9.1394 13.306 9.9636C12.4171 10.7879 11.9726 11.8061 11.9726 13.0182C11.9726 14.2303 12.4171 15.2485 13.306 16.0727C14.1949 16.897 15.2929 17.3091 16.6001 17.3091ZM2.95304 27.6364C2.32559 27.6364 1.77657 27.4182 1.30598 26.9818C0.835388 26.5455 0.600098 26.0364 0.600098 25.4545V6.54545C0.600098 5.91515 0.835388 5.39394 1.30598 4.98182C1.77657 4.5697 2.32559 4.36364 2.95304 4.36364H30.2472C30.8746 4.36364 31.4236 4.58182 31.8942 5.01818C32.3648 5.45455 32.6001 5.96364 32.6001 6.54545V25.4545C32.6001 26.0364 32.3648 26.5455 31.8942 26.9818C31.4236 27.4182 30.8746 27.6364 30.2472 27.6364H2.95304ZM6.40402 25.4545C7.7374 23.9273 9.3191 22.7818 11.1491 22.0182C12.9792 21.2545 14.7962 20.8727 16.6001 20.8727C18.3779 20.8727 20.2014 21.2545 22.0707 22.0182C23.94 22.7818 25.5151 23.9273 26.7962 25.4545H30.2472V6.54545H2.95304V25.4545H6.40402ZM10.0903 25.4545H23.1883C22.3779 24.7273 21.4302 24.1455 20.3452 23.7091C19.2602 23.2727 18.0119 23.0545 16.6001 23.0545C15.1883 23.0545 13.953 23.2727 12.8942 23.7091C11.8354 24.1455 10.9008 24.7273 10.0903 25.4545ZM16.6001 15.1273C15.9726 15.1273 15.4432 14.9212 15.0119 14.5091C14.5805 14.097 14.3648 13.6 14.3648 13.0182C14.3648 12.4364 14.5805 11.9394 15.0119 11.5273C15.4432 11.1152 15.9726 10.9091 16.6001 10.9091C17.2275 10.9091 17.757 11.1152 18.1883 11.5273C18.6197 11.9394 18.8354 12.4364 18.8354 13.0182C18.8354 13.6 18.6197 14.097 18.1883 14.5091C17.757 14.9212 17.2275 15.1273 16.6001 15.1273Z" fill="#37E3EE"/>
</svg>
