<svg width="23" height="22" viewBox="0 0 23 22" fill="none" xmlns="http://www.w3.org/2000/svg">
<path d="M10.875 21.1439L15.4 8.86494H17.45L22.1 21.1439H19.925L18.9 17.9207H14.1L12.925 21.1439H10.875ZM14.65 16.13H18.2L16.45 11.1673H16.4L14.65 16.13ZM3 18.0742L1.625 16.6672L6.725 11.4486C6.09167 10.6983 5.52917 9.94362 5.0375 9.18471C4.54583 8.4258 4.11667 7.63705 3.75 6.81845H5.925C6.20833 7.38123 6.52083 7.91418 6.8625 8.41727C7.20417 8.92037 7.59167 9.43626 8.025 9.96494C8.775 9.16339 9.4 8.332 9.9 7.47077C10.4 6.60953 10.825 5.70993 11.175 4.77195H0V2.72545H7V0.678955H9V2.72545H16V4.77195H13.175C12.8083 5.94869 12.3208 7.1041 11.7125 8.2382C11.1042 9.3723 10.3583 10.451 9.475 11.4742L11.925 14.0068L11.175 16.0788L8 12.9579L3 18.0742Z" fill="#02B5C0"/>
</svg>
